<svg width="32" height="26" viewBox="0 0 32 26" fill="none" xmlns="http://www.w3.org/2000/svg">
<rect width="32" height="26" rx="5" fill="#FEF08A"/>
<path d="M22.9172 8.84969L21.5137 7.37781L20.1919 8.58812L19.3128 9.39437L22.8658 13.1322L20.642 15.4722L19.3119 16.8709C19.8161 17.3387 20.312 17.7991 20.8153 18.2641L21.5156 18.9147L23.5414 16.78L27 13.1312L22.9172 8.84969ZM7.74267 10.255L5 13.1312C6.8425 15.0747 8.66025 16.9891 10.4853 18.9128L10.9528 18.4778L12.6881 16.87L11.3617 15.475L9.13417 13.1312L11.9841 10.135L12.6872 9.39531C12.2893 9.02969 11.8988 8.67156 11.5065 8.31344L10.4853 7.375L7.74267 10.255ZM19.2789 4.59437L15.6627 22L15.483 21.9634L12.7064 21.4056L15.0485 10.1369L16.3236 4L19.2789 4.59437Z" fill="black"/>
</svg>
