<svg width="250" height="200" viewBox="0 0 250 200" fill="none" xmlns="http://www.w3.org/2000/svg">
<rect width="250" height="200" rx="30" fill="#FEF08A"/>
<path d="M172.162 72.3312L162.594 62.5187L153.581 70.5875L147.588 75.9625L171.812 100.881L156.65 116.481L147.581 125.806C151.019 128.925 154.4 131.994 157.831 135.094L162.606 139.431L176.419 125.2L200 100.875L172.162 72.3312ZM68.7 81.7L50 100.875C62.5625 113.831 74.9563 126.594 87.4 139.419L90.5875 136.519L102.419 125.8L93.375 116.5L78.1875 100.875L97.6187 80.9L102.412 75.9687C99.7 73.5312 97.0375 71.1437 94.3625 68.7562L87.4 62.5L68.7 81.7ZM147.356 43.9625L122.7 160L121.475 159.756L102.544 156.037L118.512 80.9125L127.206 40L147.356 43.9625Z" fill="black"/>
</svg>
